<svg xmlns="http://www.w3.org/2000/svg" viewBox="0 0 32 32"><title>19-Email-Process</title><g id="_19-Email-Process" data-name="19-Email-Process"><path d="M29,3H3A3,3,0,0,0,0,6V24a3,3,0,0,0,3,3H15V25H3a1,1,0,0,1-1-1V6.23l13.42,9.58a1,1,0,0,0,1.16,0L30,6.23V15h2V6A3,3,0,0,0,29,3ZM16,13.77,3.72,5H28.28Z"/><path d="M28.17,20.25l1.54-1.54-1.41-1.41-1.54,1.54A5,5,0,0,0,25,18.1V16H23v2.1a5,5,0,0,0-1.75.73l-1.54-1.54-1.41,1.41,1.54,1.54A5,5,0,0,0,19.1,22H17v2h2.1a4.93,4.93,0,0,0,.38,1.11l-1.19,1.19,1.41,1.41,1-1A5,5,0,0,0,23,27.9V30h2V27.9a5,5,0,0,0,2.31-1.18l1,1,1.41-1.41-1.19-1.19A4.93,4.93,0,0,0,28.9,24H31V22H28.9A5,5,0,0,0,28.17,20.25ZM24,26a3,3,0,1,1,3-3A3,3,0,0,1,24,26Z"/></g></svg>